<svg xmlns="http://www.w3.org/2000/svg" xmlns:xlink="http://www.w3.org/1999/xlink" viewBox="0 0 48 48" version="1.1">
<g id="surface1">
<path style=" fill:#673AB7;" d="M 42.601563 35.652344 C 42.859375 34.8125 43 33.925781 43 33 C 43 32.074219 42.859375 31.179688 42.601563 30.339844 L 42.789063 30.230469 L 44.273438 28.796875 L 42.773438 26.199219 L 40.789063 26.765625 L 40.589844 26.882813 C 39.378906 25.582031 37.792969 24.636719 36 24.230469 L 36 24 L 35.5 22 L 32.5 22 L 32 24 L 32 24.230469 C 30.207031 24.640625 28.621094 25.582031 27.410156 26.882813 L 27.207031 26.765625 L 25.226563 26.199219 L 23.726563 28.796875 L 25.207031 30.230469 L 25.398438 30.34375 C 25.140625 31.179688 25 32.074219 25 33 C 25 33.925781 25.140625 34.8125 25.398438 35.652344 L 25.210938 35.761719 L 23.726563 37.195313 L 25.226563 39.792969 L 27.210938 39.226563 L 27.40625 39.113281 C 28.617188 40.414063 30.203125 41.359375 32 41.769531 L 32 41.992188 L 32.5 43.992188 L 35.5 43.992188 L 36 41.992188 L 36 41.769531 C 37.796875 41.359375 39.382813 40.414063 40.59375 39.113281 L 40.792969 39.226563 L 42.773438 39.792969 L 44.273438 37.195313 L 42.792969 35.761719 Z M 34 38 C 31.238281 38 29 35.761719 29 33 C 29 30.238281 31.238281 28 34 28 C 36.761719 28 39 30.238281 39 33 C 39 35.761719 36.761719 38 34 38 Z "></path>
<path style=" fill:#2196F3;" d="M 20.703125 30.136719 C 20.890625 29.453125 21 28.738281 21 28 C 21 27.257813 20.890625 26.542969 20.703125 25.859375 L 20.925781 25.730469 L 22.40625 24.296875 L 20.90625 21.699219 L 18.925781 22.265625 L 18.703125 22.394531 C 17.703125 21.375 16.429688 20.628906 15 20.261719 L 15 20 L 14.5 18 L 11.5 18 L 11 20 L 11 20.261719 C 9.574219 20.628906 8.296875 21.375 7.296875 22.394531 L 7.074219 22.265625 L 5.09375 21.699219 L 3.59375 24.296875 L 5.074219 25.730469 L 5.300781 25.859375 C 5.109375 26.542969 5 27.257813 5 28 C 5 28.738281 5.109375 29.453125 5.296875 30.136719 L 5.074219 30.261719 L 3.59375 31.695313 L 5.09375 34.292969 L 7.074219 33.726563 L 7.292969 33.601563 C 8.296875 34.621094 9.570313 35.367188 11 35.738281 L 11 35.992188 L 11.5 37.992188 L 14.5 37.992188 L 15 35.992188 L 15 35.738281 C 16.429688 35.367188 17.703125 34.621094 18.707031 33.601563 L 18.925781 33.726563 L 20.90625 34.292969 L 22.40625 31.695313 L 20.925781 30.261719 Z M 13 32 C 10.789063 32 9 30.210938 9 28 C 9 25.789063 10.789063 24 13 24 C 15.210938 24 17 25.789063 17 28 C 17 30.210938 15.210938 32 13 32 Z "></path>
<path style=" fill:#3F51B5;" d="M 34.703125 16.136719 C 34.890625 15.453125 35 14.738281 35 14 C 35 13.257813 34.890625 12.542969 34.703125 11.859375 L 34.925781 11.730469 L 36.40625 10.296875 L 34.90625 7.699219 L 32.925781 8.265625 L 32.703125 8.394531 C 31.703125 7.375 30.425781 6.628906 29 6.261719 L 29 6 L 28.5 4 L 25.5 4 L 25 6 L 25 6.261719 C 23.574219 6.628906 22.296875 7.375 21.296875 8.394531 L 21.074219 8.265625 L 19.09375 7.699219 L 17.59375 10.296875 L 19.074219 11.730469 L 19.300781 11.859375 C 19.109375 12.542969 19 13.257813 19 14 C 19 14.738281 19.109375 15.453125 19.296875 16.136719 L 19.074219 16.261719 L 17.59375 17.695313 L 19.09375 20.292969 L 21.074219 19.726563 L 21.292969 19.601563 C 22.296875 20.621094 23.570313 21.367188 25 21.738281 L 25 21.992188 L 25.5 23.992188 L 28.5 23.992188 L 29 21.992188 L 29 21.738281 C 30.429688 21.367188 31.703125 20.621094 32.707031 19.601563 L 32.925781 19.726563 L 34.90625 20.292969 L 36.40625 17.695313 L 34.925781 16.261719 Z M 27 18 C 24.789063 18 23 16.210938 23 14 C 23 11.789063 24.789063 10 27 10 C 29.210938 10 31 11.789063 31 14 C 31 16.210938 29.210938 18 27 18 Z "></path>
</g>
</svg>
