<svg xmlns="http://www.w3.org/2000/svg" xmlns:xlink="http://www.w3.org/1999/xlink" viewBox="0 0 48 48" version="1.1">
<g id="surface1">
<path style=" fill:#3F51B5;" d="M 10 40 L 10 8 C 10 6.898438 10.898438 6 12 6 L 36 6 C 37.101563 6 38 6.898438 38 8 L 38 40 C 38 41.101563 37.101563 42 36 42 L 12 42 C 10.898438 42 10 41.101563 10 40 Z "></path>
<path style=" fill:#1A237E;" d="M 15 33 C 15 34.105469 14.105469 35 13 35 C 11.894531 35 11 34.105469 11 33 C 11 31.894531 11.894531 31 13 31 C 14.105469 31 15 31.894531 15 33 Z "></path>
<path style=" fill:#1A237E;" d="M 15 27 C 15 28.105469 14.105469 29 13 29 C 11.894531 29 11 28.105469 11 27 C 11 25.894531 11.894531 25 13 25 C 14.105469 25 15 25.894531 15 27 Z "></path>
<path style=" fill:#1A237E;" d="M 15 21 C 15 22.105469 14.105469 23 13 23 C 11.894531 23 11 22.105469 11 21 C 11 19.894531 11.894531 19 13 19 C 14.105469 19 15 19.894531 15 21 Z "></path>
<path style=" fill:#1A237E;" d="M 15 15 C 15 16.105469 14.105469 17 13 17 C 11.894531 17 11 16.105469 11 15 C 11 13.894531 11.894531 13 13 13 C 14.105469 13 15 13.894531 15 15 Z "></path>
<path style=" fill:#B0BEC5;" d="M 13 34 L 9 34 C 8.398438 34 8 33.601563 8 33 C 8 32.398438 8.398438 32 9 32 L 13 32 C 13.601563 32 14 32.398438 14 33 C 14 33.601563 13.601563 34 13 34 Z "></path>
<path style=" fill:#B0BEC5;" d="M 13 28 L 9 28 C 8.398438 28 8 27.601563 8 27 C 8 26.398438 8.398438 26 9 26 L 13 26 C 13.601563 26 14 26.398438 14 27 C 14 27.601563 13.601563 28 13 28 Z "></path>
<path style=" fill:#B0BEC5;" d="M 13 22 L 9 22 C 8.398438 22 8 21.601563 8 21 C 8 20.398438 8.398438 20 9 20 L 13 20 C 13.601563 20 14 20.398438 14 21 C 14 21.601563 13.601563 22 13 22 Z "></path>
<path style=" fill:#B0BEC5;" d="M 13 16 L 9 16 C 8.398438 16 8 15.601563 8 15 C 8 14.398438 8.398438 14 9 14 L 13 14 C 13.601563 14 14 14.398438 14 15 C 14 15.601563 13.601563 16 13 16 Z "></path>
<path style=" fill:#FFFFFF;" d="M 18 15 L 32 15 L 32 25 L 18 25 Z "></path>
<path style=" fill:#03A9F4;" d="M 20 17 L 30 17 L 30 19 L 20 19 Z "></path>
<path style=" fill:#03A9F4;" d="M 20 21 L 30 21 L 30 23 L 20 23 Z "></path>
</g>
</svg>
