<?xml version="1.0" encoding="utf-8"?>
<!-- Generator: Adobe Illustrator 23.0.0, SVG Export Plug-In . SVG Version: 6.00 Build 0)  -->
<svg version="1.1" id="Layer_1" xmlns="http://www.w3.org/2000/svg" xmlns:xlink="http://www.w3.org/1999/xlink" x="0px" y="0px"
	 viewBox="0 0 612 612" style="enable-background:new 0 0 612 612;" xml:space="preserve">
<style type="text/css">
	.st0{fill:#FFFFFF;}
	.st1{fill:#1F1D5A;}
</style>
<path class="st0" d="M301.4,153.4v309.2c85.4,0,154.6-69.2,154.6-154.6C456,222.6,386.8,153.4,301.4,153.4z"/>
<path class="st1" d="M146.8,307.9c0,85.4,69.2,154.6,154.6,154.6V153.4C216,153.4,146.8,222.6,146.8,307.9z"/>
<path class="st0" d="M301.4,469.3c-89,0-161.4-72.4-161.4-161.4s72.4-161.4,161.4-161.4S462.7,219,462.7,307.9
	S390.4,469.3,301.4,469.3z M301.4,160.1c-81.5,0-147.8,66.3-147.8,147.8c0,81.5,66.3,147.8,147.8,147.8s147.8-66.3,147.8-147.8
	C449.2,226.4,382.9,160.1,301.4,160.1z"/>
<path class="st1" d="M301.4,209.9V406c54.2,0,98.1-43.9,98.1-98.1C399.4,253.8,355.5,209.9,301.4,209.9z"/>
<path class="st0" d="M203.3,307.9c0,54.2,43.9,98.1,98.1,98.1V209.9C247.2,209.9,203.3,253.8,203.3,307.9z"/>
<path class="st1" d="M301.4,412.8c-57.8,0-104.8-47-104.8-104.8c0-57.8,47-104.8,104.8-104.8c57.8,0,104.8,47,104.8,104.8
	C406.2,365.7,359.2,412.8,301.4,412.8z M301.4,216.7c-50.3,0-91.3,40.9-91.3,91.3s40.9,91.3,91.3,91.3s91.3-40.9,91.3-91.3
	S351.7,216.7,301.4,216.7z"/>
<g>
	<path class="st0" d="M587.5,307.9V111.8c0,0-81.3-63-272.3-43.8C137,85.9,24.5,220.3,24.5,220.3s159.2-73.3,297.6-66.9
		C488.5,161,587.5,307.9,587.5,307.9z"/>
	<path class="st0" d="M594.3,330.1l-12.4-18.4c-1-1.4-99.1-144.2-260-151.6c-135.1-6.2-292.9,65.6-294.5,66.3L0,239l19.3-23.1
		c1.1-1.4,116.3-136.7,295.2-154.7c191.4-19.2,273.7,42.6,277.1,45.2l2.6,2V330.1z M305.1,146.2c5.8,0,11.6,0.1,17.4,0.4
		C456.7,152.7,548.8,249,580.7,288V115.4c-15.3-10-97.7-57.4-264.8-40.6C187.8,87.6,93.3,162.6,52.3,201.4
		C102.7,181.8,207.5,146.2,305.1,146.2z"/>
</g>
<g>
	<path class="st0" d="M24.5,308.4v196.1c0,0,81.3,63,272.3,43.8C475,530.4,587.5,396,587.5,396s-159.2,73.3-297.6,66.9
		C123.5,455.3,24.5,308.4,24.5,308.4z"/>
	<path class="st0" d="M226.2,558.7c-140.9,0-202.9-46.6-205.9-48.9l-2.6-2V286.2l12.4,18.4c1,1.4,99.1,144.2,260,151.6
		c135.1,6.2,292.9-65.6,294.5-66.3l27.4-12.6l-19.3,23.1c-1.1,1.4-116.3,136.7-295.2,154.7C271.8,557.6,248,558.7,226.2,558.7z
		 M31.3,500.9c15.3,10,97.7,57.4,264.8,40.6c128.1-12.8,222.6-87.9,263.6-126.7c-53.4,20.8-167.8,59.5-270.2,54.8
		C155.2,463.6,63.2,367.3,31.3,328.3V500.9z"/>
</g>
</svg>
